custom-analysis
version=1
nRows=5
nColumns=98
inDegrees=no

This file contains tibia displacement and acting force.

Units are S.I. units (seconds, meters, Newtons, ...)
Angles are in degrees.

endheader
time	APT	SIT	knee_angle	aACL_R_force	pACL_R_force	aPCL_R_force	pPCL_R_force	aMCL_R_force	mMCL_R_force	pMCL_R_force	aLCL_R_force	mLCL_R_force	pLCL_R_force	aPCL_L_force	pPCL_L_force	aMCL_L_force	aLCL_L_force	aACL_R_length	pACL_R_length	aPCL_R_length	pPCL_R_length	aMCL_R_length	mMCL_R_length	pMCL_R_length	aLCL_R_length	mLCL_R_length	pLCL_R_length	aPCL_L_length	pPCL_L_length	aMCL_L_length	aLCL_L_length	aACL_R_strain	pACL_R_strain	aPCL_R_strain	pPCL_R_strain	aMCL_R_strain	mMCL_R_strain	pMCL_R_strain	aLCL_R_strain	mLCL_R_strain	pLCL_R_strain	aPCL_L_strain	pPCL_L_strain	aMCL_L_strain	aLCL_L_strain	femur_lat_meniscii_r.femur_lat_r.force.X	femur_lat_meniscii_r.femur_lat_r.force.Y	femur_lat_meniscii_r.femur_lat_r.force.Z	femur_lat_meniscii_r.femur_lat_r.torque.X	femur_lat_meniscii_r.femur_lat_r.torque.Y	femur_lat_meniscii_r.femur_lat_r.torque.Z	femur_lat_meniscii_r.meniscus_lat_r.force.X	femur_lat_meniscii_r.meniscus_lat_r.force.Y	femur_lat_meniscii_r.meniscus_lat_r.force.Z	femur_lat_meniscii_r.meniscus_lat_r.torque.X	femur_lat_meniscii_r.meniscus_lat_r.torque.Y	femur_lat_meniscii_r.meniscus_lat_r.torque.Z	femur_med_meniscii_r.femur_med_r.force.X	femur_med_meniscii_r.femur_med_r.force.Y	femur_med_meniscii_r.femur_med_r.force.Z	femur_med_meniscii_r.femur_med_r.torque.X	femur_med_meniscii_r.femur_med_r.torque.Y	femur_med_meniscii_r.femur_med_r.torque.Z	femur_med_meniscii_r.meniscus_med_r.force.X	femur_med_meniscii_r.meniscus_med_r.force.Y	femur_med_meniscii_r.meniscus_med_r.force.Z	femur_med_meniscii_r.meniscus_med_r.torque.X	femur_med_meniscii_r.meniscus_med_r.torque.Y	femur_med_meniscii_r.meniscus_med_r.torque.Z	femur_med_tibia_r.tibia_upper_r.force.X	femur_med_tibia_r.tibia_upper_r.force.Y	femur_med_tibia_r.tibia_upper_r.force.Z	femur_med_tibia_r.tibia_upper_r.torque.X	femur_med_tibia_r.tibia_upper_r.torque.Y	femur_med_tibia_r.tibia_upper_r.torque.Z	femur_med_tibia_r.femur_med_r.force.X	femur_med_tibia_r.femur_med_r.force.Y	femur_med_tibia_r.femur_med_r.force.Z	femur_med_tibia_r.femur_med_r.torque.X	femur_med_tibia_r.femur_med_r.torque.Y	femur_med_tibia_r.femur_med_r.torque.Z	femur_lat_tibia_r.tibia_upper_r.force.X	femur_lat_tibia_r.tibia_upper_r.force.Y	femur_lat_tibia_r.tibia_upper_r.force.Z	femur_lat_tibia_r.tibia_upper_r.torque.X	femur_lat_tibia_r.tibia_upper_r.torque.Y	femur_lat_tibia_r.tibia_upper_r.torque.Z	femur_lat_tibia_r.femur_lat_r.force.X	femur_lat_tibia_r.femur_lat_r.force.Y	femur_lat_tibia_r.femur_lat_r.force.Z	femur_lat_tibia_r.femur_lat_r.torque.X	femur_lat_tibia_r.femur_lat_r.torque.Y	femur_lat_tibia_r.femur_lat_r.torque.Z	femur_lat_meniscii_force_r	femur_med_meniscii_force_r	femur_lat_tibia_force_r	femur_med_tibia_force_r
      0.03937380	      0.00334797	      0.00169979	      5.09596632	     31.60261196	     36.16274915	      0.00000000	      0.00000000	      0.00000000	     -3.44363667	     10.23270219	      0.00000000	      0.00000000	      0.00000000	      0.00000000	      0.00000000	      0.00000001	      0.00000000	      0.03269541	      0.02670547	      0.02786688	      0.02819167	      0.05586966	      0.06039562	      0.06237406	      0.05473071	      0.05305171	      0.05100235	      0.01525851	      0.01651186	      0.06550154	      0.04489616	      0.05450348	      0.06571658	     -0.10382337	     -0.05674983	     -0.06925791	      0.01007002	      0.06208388	     -0.02226787	     -0.05800728	     -0.02560723	      0.00000079	     -0.32847694	      0.00000060	     -0.00000086	    106.82760867	    163.36490537	     19.42097540	    -12.17257205	      2.70988803	     44.96981312	   -106.82760867	   -163.36490537	    -19.42097540	      5.31112269	     -3.14276749	     -3.58623050	     15.67436458	    141.84910278	     20.56810151	     -5.51936114	     -0.28449447	      6.90009610	    -15.67436458	   -141.84910278	    -20.56810151	     -1.85973549	      0.17745132	     -0.53846739	     23.15530794	   -717.56443170	     66.08099468	    -14.34432311	     -0.97748599	     -2.99144189	    -23.15530794	    717.56443170	    -66.08099468	     42.28214853	      1.22331183	     -4.12880607	    -50.33195165	   -214.69434399	    -50.50015007	      7.43302189	     -1.12760445	     -2.65367707	     50.33195165	    214.69434399	     50.50015007	    -26.03229835	      0.82206975	     22.48994398	    196.15658176	    144.18703292	    226.22385341	    720.97266230
      0.04047707	      0.00346960	      0.00175336	      5.30147034	     32.46654988	     36.65982494	      0.00000000	      0.00000000	      0.00000000	     -3.36738535	      9.31624722	      0.00000000	      0.00000000	      0.00000000	      0.00000000	      0.00000000	      0.00000001	      0.00000000	      0.03272192	      0.02671589	      0.02784334	      0.02816418	      0.05588302	      0.06038942	      0.06234539	      0.05466065	      0.05297186	      0.05090929	      0.01525851	      0.01651186	      0.06550154	      0.04489616	      0.05535869	      0.06613217	     -0.10458053	     -0.05766963	     -0.06903529	      0.00996628	      0.06159568	     -0.02351932	     -0.05942519	     -0.02738506	      0.00000079	     -0.32847694	      0.00000060	     -0.00000086	    109.06895945	    170.68597881	     18.37782096	    -11.90401853	      2.77110171	     45.91259338	   -109.06895945	   -170.68597881	    -18.37782096	      5.46987453	     -3.21214382	     -3.63091611	     16.47611220	    141.88696711	     19.42693499	     -5.04157740	     -0.29683433	      7.17482477	    -16.47611220	   -141.88696711	    -19.42693499	     -1.89887225	      0.18701233	     -0.48648521	     27.12485721	   -709.43549553	     69.80944185	    -14.36204578	     -1.03499734	     -2.54387015	    -27.12485721	    709.43549553	    -69.80944185	     43.69957640	      1.31393355	     -6.02071750	    -54.20555455	   -238.78592205	    -54.78237162	      8.21627652	     -1.22547152	     -2.83519813	     54.20555455	    238.78592205	     54.78237162	    -28.36960238	      0.88785228	     24.24794263	    203.38998397	    144.15540057	    250.91446143	    713.37776694
      0.04197552	      0.00363632	      0.00182762	      5.59121893	     32.91812953	     36.56295468	      0.00000000	      0.00000000	      0.00000000	     -3.43882169	      7.84281132	      0.00000000	      0.00000000	      0.00000000	      0.00000000	      0.00000000	      0.00000001	      0.00000000	      0.03275873	      0.02673047	      0.02781370	      0.02812837	      0.05590222	      0.06038092	      0.06230501	      0.05456694	      0.05286411	      0.05078286	      0.01525851	      0.01651186	      0.06550154	      0.04489616	      0.05654581	      0.06671427	     -0.10553363	     -0.05886796	     -0.06871537	      0.00982406	      0.06090810	     -0.02519350	     -0.06133840	     -0.02980054	      0.00000079	     -0.32847694	      0.00000060	     -0.00000086	    106.50472408	    178.84239890	     20.35371950	    -12.91421251	      2.69573462	     44.81523820	   -106.50472408	   -178.84239890	    -20.35371950	      5.75292078	     -3.13686601	     -3.46631439	     16.00553929	    141.49971474	     20.01040360	     -5.30066671	     -0.29010142	      6.90267122	    -16.00553929	   -141.49971474	    -20.01040360	     -1.86374438	      0.17661520	     -0.36964306	     38.17750407	   -697.52707879	     70.46171079	    -14.18005598	     -1.17813758	     -1.69780235	    -38.17750407	    697.52707879	    -70.46171079	     43.72437732	      1.51211664	    -11.00369176	    -56.35382262	   -272.52138265	    -62.02733418	      9.36672174	     -1.28098601	     -2.93766896	     56.35382262	    272.52138265	     62.02733418	    -32.17420805	      0.90487407	     25.31147566	    209.14620196	    143.80112243	    285.11584928	    702.11566009
      0.04302934	      0.00375256	      0.00188051	      5.80203018	     34.50364030	     37.80219460	      0.00000000	      0.00000000	      0.00000000	     -3.31045354	      7.02398755	      0.00000000	      0.00000000	      0.00000000	      0.00000000	      0.00000000	      0.00000001	      0.00000000	      0.03278389	      0.02673977	      0.02779611	      0.02810571	      0.05591675	      0.06037517	      0.06227586	      0.05450324	      0.05278999	      0.05069509	      0.01525851	      0.01651186	      0.06550154	      0.04489616	      0.05735739	      0.06708543	     -0.10609940	     -0.05962590	     -0.06847336	      0.00972805	      0.06041174	     -0.02633143	     -0.06265448	     -0.03147742	      0.00000079	     -0.32847694	      0.00000060	     -0.00000086	    109.14990945	    185.25452169	     18.86024649	    -12.43347567	      2.75467518	     45.93128960	   -109.14990945	   -185.25452169	    -18.86024649	      5.86911356	     -3.20395899	     -3.52827079	     16.84313319	    139.68434984	     17.49146644	     -4.27845520	     -0.30168223	      7.21314604	    -16.84313319	   -139.68434984	    -17.49146644	     -1.92554317	      0.18982370	     -0.34581693	     35.43555377	   -683.25136694	     77.03498207	    -14.22231373	     -1.13422793	     -1.53111096	    -35.43555377	    683.25136694	    -77.03498207	     46.23589722	      1.48691693	    -10.06678650	    -60.95767644	   -296.00041658	    -64.53107683	     10.06504843	     -1.40609717	     -3.12272013	     60.95767644	    296.00041658	     64.53107683	    -33.74568168	      0.99768661	     27.36539752	    215.84403962	    141.77926549	    309.02482879	    688.49291743
      0.04408316	      0.00387033	      0.00193407	      6.01907204	     35.00393013	     37.88031503	      0.00000000	      0.00000000	      0.00000000	     -3.41034045	      5.92390513	      0.00000000	      0.00000000	      0.00000000	      0.00000000	      0.00000000	      0.00000001	      0.00000000	      0.03281011	      0.02674995	      0.02777971	      0.02808375	      0.05593196	      0.06036942	      0.06224593	      0.05444082	      0.05271673	      0.05060773	      0.01525851	      0.01651186	      0.06550154	      0.04489616	      0.05820296	      0.06749146	     -0.10662663	     -0.06036063	     -0.06821996	      0.00963185	      0.05990208	     -0.02744651	     -0.06395527	     -0.03314638	      0.00000079	     -0.32847694	      0.00000060	     -0.00000086	    109.72554647	    192.68838127	     18.77128812	    -12.57556654	      2.77565024	     46.17228455	   -109.72554647	   -192.68838127	    -18.77128812	      6.07335931	     -3.22968382	     -3.50364966	     14.73539957	    135.95102257	     16.73340199	     -4.03489152	     -0.25284677	      6.27874177	    -14.73539957	   -135.95102257	    -16.73340199	     -1.89092356	      0.14850150	     -0.21272490	     39.67435190	   -669.72226084	     76.17008592	    -13.95620686	     -1.16429105	     -1.07849164	    -39.67435190	    669.72226084	    -76.17008592	     45.58965006	      1.54019123	    -12.09318364	    -61.82335475	   -317.94692023	    -69.09324418	     10.80979361	     -1.43374232	     -3.14336172	     61.82335475	    317.94692023	     69.09324418	    -36.15795553	      0.99935083	     27.82337006	    222.53284945	    137.76726491	    331.18914183	    675.20651867
